# xmcd
#
# Track frame offsets: 
#        150
#        10898
#        22089
#        30408
#        41754
#        55803
#        65143
#        71807
#        81321
#        94195
#        102113
#        114991
#        125192
#        140627
#        149427
#        163419
#        175983
#        191369
#        200245
#        210088
#        217976
#        228211
#        237035
#        252272
#        265570
#
# Disc length: 3699 seconds
#
# Revision: 1
# Processed by: cddbd v1.5.2PL0 Copyright (c) Steve Scherf et al.
# Submitted via: ExactAudioCopy v0.99pb5
#
DISCID=6f0e7119
DTITLE=Frank Sinatra - The Memorial Album
DYEAR=1900
DGENRE=Avantgarde
TTITLE0=Night and Day
TTITLE1=Just One of Those Things
TTITLE2=On the Sunny Side of the Street
TTITLE3=Blue Skies
TTITLE4=Begin the Beguinne
TTITLE5=I'm in the Mood for Love
TTITLE6=Somebody Loves Me
TTITLE7=Love Me or Leave Me
TTITLE8=A Good Man is Hard to Find
TTITLE9=s' Wonderful
TTITLE10=Yoy Make Me Feel So Young
TTITLE11=Out of Nowhere
TTITLE12=Laura
TTITLE13=For You
TTITLE14=They Say It's Wonderful
TTITLE15=It's All Up to You
TTITLE16=Ol' Man River
TTITLE17=I've Got My Love to Keep Me Warm
TTITLE18=Between th Devil and the Deep Blue Sea
TTITLE19=The Right Kind of Love
TTITLE20=100 Years from Today
TTITLE21=They Didn't Believe Me
TTITLE22=You Are Love
TTITLE23=The Magic Stopped
TTITLE24=You Do Something to Me
EXTD=
EXTT0=
EXTT1=
EXTT2=
EXTT3=
EXTT4=
EXTT5=
EXTT6=
EXTT7=
EXTT8=
EXTT9=
EXTT10=
EXTT11=
EXTT12=
EXTT13=
EXTT14=
EXTT15=
EXTT16=
EXTT17=
EXTT18=
EXTT19=
EXTT20=
EXTT21=
EXTT22=
EXTT23=
EXTT24=
PLAYORDER=
